<svg width="245" height="128" viewBox="0 0 245 128" fill="none" xmlns="http://www.w3.org/2000/svg">
<path d="M64.3655 98.8508L52.4544 106.007V126.606H48.9071V106.02L36.8227 98.9275L36.8148 94.8097L50.67 102.941L64.3663 94.7108L64.3655 98.8508Z" fill="#002F23"/>
<path d="M14.7571 98.3831L26.5606 105.475L28.3322 102.527L15.4597 94.7361H14.1692L1.20484 102.344L1.22383 104.883L24.0182 117.735L14.8496 122.967L2.63785 116.055L0.942139 119.051L14.1913 126.55L15.5578 126.54L28.0474 119.035V116.419L5.89159 103.586L14.7571 98.3831Z" fill="#002F23"/>
<path d="M230.707 98.554L242.698 105.759L244.498 102.764L231.421 94.8493H230.11L216.94 102.578L216.959 105.158L240.115 118.213L230.801 123.528L218.396 116.507L216.673 119.55L230.132 127.168L231.521 127.157L244.208 119.534V116.875L221.701 103.839L230.707 98.554Z" fill="#002F23"/>
<path d="M170.781 116.822L159.396 123.664L148.235 117.115V104.944L158.892 98.6885L170.787 105.836L172.574 102.863L163.057 97.144L159.618 95.0138H158.301L145.623 102.454L144.767 102.983V118.74L146.037 119.847L158.801 127.338L160.34 127.234L160.458 127.028L172.593 119.63L170.781 116.822Z" fill="#002F23"/>
<path d="M171.04 109.478H149.129V113.031H171.04V109.478Z" fill="#002F23"/>
<path d="M136.247 106.505L124.487 99.4387V127.24H120.884V99.3999L108.763 106.514L108.77 102.333L121.455 94.8888L123.923 94.8975L136.247 102.31V106.505Z" fill="#002F23"/>
<path d="M197.208 119.445L202.079 126.72L204.875 124.811L200.019 117.525L197.208 119.445Z" fill="#002F23"/>
<path d="M208.303 102.543L199.816 97.4431L195.609 94.8437H194.301L181.858 102.146L181.023 102.645V118.12L182.27 119.206L194.604 126.443L195.382 126.857L195.856 126.557L199.557 124.385L197.834 121.45L195.326 122.921L184.426 116.525V104.584L194.881 98.4488L205.073 104.572V117.201L201.997 119.007L203.719 121.942L208.476 119.15V102.666L208.303 102.543Z" fill="#002F23"/>
<path d="M100.281 102.383L87.8784 94.9395L86.5648 94.9363L85.2505 94.9395L72.8488 102.383V127.194H76.4491V104.428L86.5648 98.3507L96.6797 104.428V127.194H100.281V102.383Z" fill="#002F23"/>
<path d="M118.199 79.7817L113.939 72.32L118.199 64.859H126.717L130.977 72.32L126.717 79.7817H118.199Z" fill="#002F23"/>
<path d="M127.737 61.3726L124.498 55.6984L127.737 50.0233H134.216L137.456 55.6984L134.216 61.3726H127.737Z" fill="#002F23"/>
<path d="M111.027 61.3726L107.788 55.6984L111.027 50.0233H117.506L120.746 55.6984L117.506 61.3726H111.027Z" fill="#002F23"/>
<path d="M137.044 46.2679L134.508 41.8241L137.044 37.381H142.117L144.654 41.8241L142.117 46.2679H137.044Z" fill="#002F23"/>
<path d="M145.21 35.2296L142.953 31.2747L145.21 27.3199H149.726L151.984 31.2747L149.726 35.2296H145.21Z" fill="#002F23"/>
<path d="M154.405 26.0586L152.508 22.7345L154.405 19.4103H158.201L160.098 22.7345L158.201 26.0586H154.405Z" fill="#002F23"/>
<path d="M162.876 18.881L161.27 16.0695L162.876 13.2581H166.085L167.69 16.0695L166.085 18.881H162.876Z" fill="#002F23"/>
<path d="M171.735 12.6196L170.498 10.4523L171.735 8.28494H174.209L175.447 10.4523L174.209 12.6196H171.735Z" fill="#002F23"/>
<path d="M155.066 12.6196L153.829 10.4523L155.066 8.28494H157.54L158.778 10.4523L157.54 12.6196H155.066Z" fill="#002F23"/>
<path d="M138.075 12.6196L136.837 10.4523L138.075 8.28494H140.549L141.786 10.4523L140.549 12.6196H138.075Z" fill="#002F23"/>
<path d="M121.406 12.6196L120.168 10.4523L121.406 8.28494H123.88L125.117 10.4523L123.88 12.6196H121.406Z" fill="#002F23"/>
<path d="M104.611 12.6196L103.374 10.4523L104.611 8.28494H107.085L108.323 10.4523L107.085 12.6196H104.611Z" fill="#002F23"/>
<path d="M87.9417 12.6196L86.7041 10.4523L87.9417 8.28494H90.416L91.6535 10.4523L90.416 12.6196H87.9417Z" fill="#002F23"/>
<path d="M70.9924 12.6196L69.7549 10.4523L70.9924 8.28494H73.4668L74.7035 10.4523L73.4668 12.6196H70.9924Z" fill="#002F23"/>
<path d="M62.946 7.68832L61.9086 5.87075L62.946 4.05397H65.0207L66.0589 5.87075L65.0207 7.68832H62.946Z" fill="#002F23"/>
<path d="M79.4378 7.68832L78.4004 5.87075L79.4378 4.05397H81.5125L82.5499 5.87075L81.5125 7.68832H79.4378Z" fill="#002F23"/>
<path d="M96.4756 7.68832L95.4382 5.87075L96.4756 4.05397H98.5511L99.5885 5.87075L98.5511 7.68832H96.4756Z" fill="#002F23"/>
<path d="M113.306 7.68832L112.269 5.87075L113.306 4.05397H115.381L116.418 5.87075L115.381 7.68832H113.306Z" fill="#002F23"/>
<path d="M129.94 7.68832L128.902 5.87075L129.94 4.05397H132.014L133.052 5.87075L132.014 7.68832H129.94Z" fill="#002F23"/>
<path d="M146.827 7.68832L145.79 5.87075L146.827 4.05397H148.902L149.939 5.87075L148.902 7.68832H146.827Z" fill="#002F23"/>
<path d="M163.491 7.68832L162.454 5.87075L163.491 4.05397H165.566L166.603 5.87075L165.566 7.68832H163.491Z" fill="#002F23"/>
<path d="M180.378 7.68832L179.341 5.87075L180.378 4.05397H182.454L183.491 5.87075L182.454 7.68832H180.378Z" fill="#002F23"/>
<path d="M188.459 3.97564L187.584 2.44451L188.459 0.912598H190.207L191.082 2.44451L190.207 3.97564H188.459Z" fill="#002F23"/>
<path d="M172.098 4.05397L171.224 2.52206L172.098 0.990141H173.847L174.721 2.52206L173.847 4.05397H172.098Z" fill="#002F23"/>
<path d="M155.018 4.05397L154.143 2.52206L155.018 0.990141H156.766L157.641 2.52206L156.766 4.05397H155.018Z" fill="#002F23"/>
<path d="M138.437 4.05397L137.563 2.52206L138.437 0.990141H140.186L141.06 2.52206L140.186 4.05397H138.437Z" fill="#002F23"/>
<path d="M121.846 4.05397L120.971 2.52206L121.846 0.990141H123.594L124.469 2.52206L123.594 4.05397H121.846Z" fill="#002F23"/>
<path d="M104.896 4.05397L104.022 2.52206L104.896 0.990141H106.645L107.519 2.52206L106.645 4.05397H104.896Z" fill="#002F23"/>
<path d="M87.9464 4.05397L87.072 2.52206L87.9464 0.990141H89.6951L90.5695 2.52206L89.6951 4.05397H87.9464Z" fill="#002F23"/>
<path d="M71.3549 4.05397L70.4805 2.52206L71.3549 0.990141H73.1036L73.9779 2.52206L73.1036 4.05397H71.3549Z" fill="#002F23"/>
<path d="M54.6019 4.05397L53.7276 2.52206L54.6019 0.990141H56.3506L57.225 2.52206L56.3506 4.05397H54.6019Z" fill="#002F23"/>
<path d="M146.26 18.881L144.654 16.0695L146.26 13.2581H149.469L151.074 16.0695L149.469 18.881H146.26Z" fill="#002F23"/>
<path d="M129.372 18.881L127.768 16.0695L129.372 13.2581H132.582L134.187 16.0695L132.582 18.881H129.372Z" fill="#002F23"/>
<path d="M112.662 18.881L111.056 16.0695L112.662 13.2581H115.871L117.476 16.0695L115.871 18.881H112.662Z" fill="#002F23"/>
<path d="M95.9082 18.881L94.3035 16.0695L95.9082 13.2581H99.1185L100.723 16.0695L99.1185 18.881H95.9082Z" fill="#002F23"/>
<path d="M79.1553 18.881L77.5506 16.0695L79.1553 13.2581H82.3655L83.9702 16.0695L82.3655 18.881H79.1553Z" fill="#002F23"/>
<path d="M137.39 26.0586L135.493 22.7345L137.39 19.4103H141.186L143.083 22.7345L141.186 26.0586H137.39Z" fill="#002F23"/>
<path d="M120.822 26.0586L118.924 22.7345L120.822 19.4103H124.617L126.516 22.7345L124.617 26.0586H120.822Z" fill="#002F23"/>
<path d="M103.872 26.0586L101.975 22.7345L103.872 19.4103H107.668L109.566 22.7345L107.668 26.0586H103.872Z" fill="#002F23"/>
<path d="M87.3047 26.0586L85.4064 22.7345L87.3047 19.4103H91.1004L92.9979 22.7345L91.1004 26.0586H87.3047Z" fill="#002F23"/>
<path d="M112.009 35.2296L109.751 31.2747L112.009 27.3199H116.524L118.782 31.2747L116.524 35.2296H112.009Z" fill="#002F23"/>
<path d="M128.719 35.2296L126.462 31.2747L128.719 27.3199H133.234L135.493 31.2747L133.234 35.2296H128.719Z" fill="#002F23"/>
<path d="M95.2554 35.2296L92.9979 31.2747L95.2554 27.3199H99.7713L102.029 31.2747L99.7713 35.2296H95.2554Z" fill="#002F23"/>
<path d="M120.183 46.2679L117.646 41.8241L120.183 37.381H125.257L127.794 41.8241L125.257 46.2679H120.183Z" fill="#002F23"/>
<path d="M103.561 46.2679L101.024 41.8241L103.561 37.381H108.634L111.171 41.8241L108.634 46.2679H103.561Z" fill="#002F23"/>
</svg>
